<?xml version="1.0" encoding="UTF-8" standalone="no"?>
<svg
   xmlns:dc="http://purl.org/dc/elements/1.1/"
   xmlns:cc="http://creativecommons.org/ns#"
   xmlns:rdf="http://www.w3.org/1999/02/22-rdf-syntax-ns#"
   xmlns:svg="http://www.w3.org/2000/svg"
   xmlns="http://www.w3.org/2000/svg"
   viewBox="0 0 746.12921 762.4024"
   height="762.4024"
   width="746.12921"
   xml:space="preserve"
   id="svg2"
   version="1.1"><metadata
     id="metadata8"><rdf:RDF><cc:Work
         rdf:about=""><dc:format>image/svg+xml</dc:format><dc:type
           rdf:resource="http://purl.org/dc/dcmitype/StillImage" /></cc:Work></rdf:RDF></metadata><defs
     id="defs6"><clipPath
       id="clipPath14"
       clipPathUnits="userSpaceOnUse"><path
         id="path12"
         d="M -1,-1 H 558.5969 V 570.8018 H -1 Z" /></clipPath></defs><g
     clip-path="url(#clipPath14)"
     transform="matrix(1.3333333,0,0,-1.3333333,1.3333333,761.06907)"
     id="g10"><g
       transform="matrix(1.3333333,0,0,-1.3333333,1.3333333,761.06907)"
       id="g16"><path
         id="path18"
         style="fill:#4f4c4d;fill-opacity:1;fill-rule:evenodd;stroke:none"
         d="m 557.4348,265.3038 -116.0521,6.3905 c 0.7347,-2.2649 1.4655,-4.5304 2.1937,-6.7984 l 113.586,-3.0438 c 0.1003,1.148 0.1856,2.2995 0.2724,3.4517 z M 239.9477,162.8904 c -2.7105,0.8946 -5.3771,1.8825 -7.9937,2.9636 L 203.815,86.2894 c -7.9838,3.1751 -15.7961,6.8517 -23.3702,11.0532 l 42.3983,72.7506 c -2.5013,1.2963 -4.9518,2.6765 -7.3428,4.1408 l -40.2067,-73.9286 c -7.3499,4.3747 -14.4507,9.2681 -21.2669,14.6432 l 53.0226,64.9649 c -2.2255,1.6424 -4.3917,3.3594 -6.4913,5.1514 l -51.0832,-66.4395 c -6.5174,5.4629 -12.7304,11.4182 -18.6139,17.8288 l 62.1581,55.6322 c -1.9239,1.9533 -3.78,3.9724 -5.5647,6.0539 l -60.4744,-57.3494 c -5.5199,6.3774 -10.6979,13.2083 -15.5145,20.463 l 69.6291,44.9856 c -1.6098,2.2427 -3.1403,4.5445 -4.5908,6.9001 l -68.2338,-46.9491 c -4.4241,7.09 -8.4856,14.5916 -12.1748,22.4744 l 75.4605,33.3613 c -1.2569,2.5069 -2.4304,5.0632 -3.5104,7.666 L 93.6111,194.1182 C 91.2694,199.497 89.1017,205.05 87.126,210.7831 L 16.2295,188.1349 C 57.3429,68.7121 157.1023,4.8566 269.3353,0.2636 381.9838,-4.3469 486.3847,51.5543 536.9491,166.8251 L 468.1386,195.19 c -2.9027,-6.6115 -6.0831,-12.9277 -9.4756,-19.0003 l -25.8205,15.0485 c -5.37,0.7095 -12.7259,1.8516 -15.715,3.5414 -2.2717,1.2841 -6.1399,6.0465 -7.8869,8.0739 -1.2192,1.4148 -2.431,2.8355 -3.6388,4.2607 l -23.7674,13.8521 c -1.29,-2.5075 -2.6674,-4.9601 -4.1258,-7.3579 l 78.0752,-42.461 c -4.6349,-7.8114 -9.6698,-15.1529 -15.05,-22.0357 l -68.6758,56.0509 c -1.637,-2.23 -3.3505,-4.3991 -5.1372,-6.5035 L 437.171,144.646 c -5.7558,-6.9607 -11.8857,-13.409 -18.3226,-19.3677 l -58.9215,65.8315 c -1.948,-1.9304 -3.9637,-3.7902 -6.0401,-5.5817 l 60.7462,-64.0553 c -6.7473,-5.9034 -13.8127,-11.2805 -21.1428,-16.1283 l -47.6816,73.8031 c -2.2402,-1.6135 -4.5377,-3.1521 -6.8907,-4.6063 l 49.7375,-72.2849 C 381.1082,97.566 373.3126,93.3979 365.3093,89.7939 l -35.2701,79.7772 c -2.5027,-1.2654 -5.0573,-2.4412 -7.6549,-3.5309 l 37.5474,-78.5659 c -8.1352,-3.378 -16.4554,-6.2084 -24.9004,-8.5019 l -22.0649,83.5869 c -2.6971,-0.8652 -5.4348,-1.635 -8.2102,-2.306 0.3138,-1.0593 12.0526,-40.6868 24.5174,-82.7657 -8.515,-2.052 -17.142,-3.5592 -25.82,-4.5176 l -8.5972,85.3416 c -2.7487,-0.4187 -5.5253,-0.7458 -8.3301,-0.9698 l 11.0868,-84.9254 c -8.6842,-0.7163 -17.4047,-0.9028 -26.1037,-0.5323 l 4.6863,85.0841 c -1.3482,0.01 -2.6986,0.0335 -4.0558,0.089 -1.3363,0.0547 -2.6643,0.1401 -3.9878,0.2376 L 265.8725,72.193 c -8.6539,0.6021 -17.269,1.7584 -25.7896,3.4376 l 17.8052,82.876 c -2.7774,0.4524 -5.5207,1.0026 -8.2278,1.6429 L 234.3107,76.8438 c -8.424,1.9083 -16.7412,4.3368 -24.8899,7.3012 9.8526,25.4158 27.9068,71.9867 30.5269,78.7454 z M 534.5014,378.3728 C 502.8877,466.9665 433.3459,529.4914 345.7539,551.1515 l -9.5904,-43.3758 -11.0676,2.4469 9.6026,43.4305 c -15.4539,3.1643 -31.4263,5.0799 -47.8145,5.6659 -23.004,0.8226 -45.3767,-1.027 -66.8217,-5.3433 l 10.5324,-43.8401 -11.0208,-2.6481 -10.5775,44.0263 C 128.4282,531.7946 62.1677,476.5535 26.9776,396.5156 l 1.529,-0.6409 18.9349,35.9102 -12.6859,-38.5308 1.129,-0.4734 18.8479,35.7398 -12.6289,-38.3477 1.1613,-0.4864 18.7557,35.5708 -12.5679,-38.1654 1.1888,-0.4986 18.671,35.4022 -12.5099,-37.9857 1.22,-0.5116 18.578,35.236 -12.448,-37.8068 1.2475,-0.5232 18.4904,35.0665 -12.39,-37.6242 1.2787,-0.5366 18.3997,34.8993 -11.8749,-36.0695 c 40.8121,90.2475 127.0766,131.9896 210.6893,127.0831 l 4.8422,41.2725 c 2.8258,1.0216 7.7003,1.4496 13.2125,0.8028 10.6773,-1.2527 15.7547,-7.6131 14.4953,-18.3484 -1.1367,-9.6905 -6.8559,-15.3139 -16.6624,-14.1633 -1.1023,0.1292 -2.4678,0.5247 -3.253,0.8521 l -1.3317,-11.3514 c 76.1516,-8.335 148.2692,-55.6256 179.5618,-140.5204 l -9.2764,36.8421 15.8624,-36.1224 1.315,0.4442 -9.6738,38.4111 15.942,-36.2956 1.2833,0.4337 -9.7195,38.5976 16.0144,-36.4722 1.2526,0.4229 -9.7625,38.7825 16.0925,-36.6457 1.2215,0.4124 -9.8102,38.9665 16.1686,-36.819 1.1922,0.4017 -9.858,39.1521 16.2473,-36.9952 1.1619,0.3926 -9.9053,39.3358 16.3233,-37.1693 z M 28.9576,181.9834 C 66.0209,80.297 157.8339,14.5273 269.7318,9.9479 c 0.5775,-0.0235 1.152,-0.0354 1.7289,-0.0556 l -1.3725,36.758 c 2.6271,1.3859 7.3615,2.5016 12.8877,2.6825 10.7033,0.3509 16.6694,-4.9924 17.0592,-15.4355 0.3523,-9.4269 -4.4255,-15.6308 -14.2563,-15.9529 -1.1053,-0.036 -2.5098,0.1438 -3.3327,0.3433 l 0.3206,-8.5799 c 106.3482,0.2662 197.509,57.547 240.9916,152.0257 l -1.4893,0.614 -18.5927,-33.7192 12.5118,36.2262 -1.1027,0.4544 -18.5068,-33.5602 12.4543,36.055 -1.1287,0.4651 -18.4216,-33.402 12.396,35.8863 -1.158,0.4771 -18.3345,-33.2436 12.3389,35.7157 -1.1891,0.4904 -18.2475,-33.0863 12.2794,35.5459 -1.2138,0.5006 -18.1587,-32.9273 12.2202,35.3758 -1.2453,0.5134 -18.0717,-32.7694 11.7193,33.9265 C 439.778,111.4549 376.8024,72.807 310.0859,64.2093 l 6.1395,-43.2213 -11.1869,-1.4698 -6.1858,43.5467 c -11.1342,-0.8699 -22.3293,-0.9306 -33.4695,-0.1516 2.1478,-0.9786 3.5643,-3.0518 3.4107,-5.3436 -0.2039,-3.043 -3.1003,-5.3436 -6.469,-5.1228 -3.369,0.2205 -5.9332,2.8786 -5.7291,5.9219 0.1588,2.368 1.9483,4.2865 4.322,4.9169 -23.1177,2.0764 -45.9162,7.6879 -67.3271,16.8109 L 174.9016,39.009 164.569,43.4543 183.3639,84.7738 c -44.5717,21.8179 -82.0534,59.4586 -102.0371,112.5164 l 8.9071,-34.7669 -15.3335,34.1365 -1.283,-0.4099 9.2878,-36.256 -15.4075,34.3018 -1.2509,-0.3997 9.3339,-36.4317 -15.4848,34.4667 -1.2206,-0.3897 9.3776,-36.6064 -15.5577,34.632 -1.1931,-0.3812 9.4218,-36.7801 -15.6294,34.7967 -1.163,-0.3714 9.4665,-36.953 -15.7025,34.9608 -1.1372,-0.3634 9.5136,-37.1276 -15.779,35.1258 z m 337.354,76.4575 c 0.1403,0.0567 0.2155,0.0867 0.2155,0.0867 0,0 -0.0752,-0.03 -0.2155,-0.0867 z m -178.9563,-28.052 c -0.004,0.004 -0.009,0.007 -0.0141,0.012 0.01,0.0272 0.0181,0.0527 0.0266,0.0785 -0.004,-0.0301 -0.008,-0.0601 -0.0125,-0.0905 z m 4.7021,-29.4412 5.2793,5.0423 c -0.0482,0.008 -0.11,0.0122 -0.186,0.0125 -0.0802,0.0187 -0.1573,0.0425 -0.2347,0.0731 -0.002,-0.0176 -0.8328,0.1007 -0.9164,0.2169 -0.1352,0.1941 -0.1517,0.2137 -0.0907,0.47 0.0592,0.2457 0.4442,0.521 0.8362,0.7613 -0.1981,-0.066 -0.3954,-0.1491 -0.5927,-0.2556 -0.2812,-0.1523 -0.4924,-0.2869 -0.7991,-0.315 -0.112,-0.011 -0.2276,0.1009 -0.1758,0.2347 0.0783,0.2053 0.1633,0.3135 0.2537,0.5012 0.1313,0.271 0.2537,0.644 0.3816,0.8938 0.0201,0.038 0.1324,0.2029 0.1298,0.2381 0.1281,0.0901 0.1143,0.1428 -0.04,0.1533 -0.1255,0.0533 -0.2525,0.1032 -0.3778,0.1517 -0.0941,0.0357 -0.0953,0.1879 -0.009,0.2338 0.4686,0.2617 0.9372,0.4264 1.3439,0.8108 0.0664,0.0626 0.3884,0.3203 0.3685,0.4441 -0.003,-0.0564 -0.3302,-0.0442 -0.5079,-0.036 -0.4737,-0.3237 -1.0528,-0.4578 -1.5574,-0.7197 -0.0964,-0.0493 -0.2375,0.0377 -0.2131,0.1684 0.0912,0.5085 0.3265,1.0077 0.6037,1.4567 -0.2236,-0.0473 -0.4453,-0.0921 -0.6672,-0.1392 -0.2458,-0.0535 -0.3694,0.2467 -0.2608,0.461 0.3041,0.6046 0.7217,0.9348 1.271,1.2285 0.3733,0.1973 0.6171,0.3509 0.9048,0.6276 -0.2647,-0.0269 -0.5198,-0.1021 -0.7976,-0.2441 -0.1494,-0.0754 -0.2889,0.0553 -0.2894,0.2242 0.005,0.5534 0.2644,0.7617 0.6692,1.0304 0.2826,0.1854 2.2071,1.0205 2.0909,1.5392 -0.6137,0.012 -1.2198,-0.1082 -1.7357,-0.5099 -0.0272,-0.019 -0.0522,-0.0397 -0.0782,-0.0615 -0.1395,-0.1177 -0.3345,-0.007 -0.3223,0.1868 0.0181,0.3756 0.1352,0.5737 0.4079,0.803 0.4498,0.377 0.7928,0.5108 1.0992,0.8833 -0.4841,-0.1482 -0.9538,-0.3461 -1.4023,-0.6089 -0.0204,-0.008 -0.0382,-0.0187 -0.0575,-0.0309 -0.269,-0.1598 -0.453,0.2546 -0.265,0.4658 0.6602,0.7316 1.0389,1.2809 1.3101,2.249 0.002,0.0102 0.005,0.0201 0.007,0.0283 -0.1919,-0.0964 -0.3815,-0.1941 -0.5734,-0.2803 -0.2256,-0.1041 -0.5029,0.1318 -0.3974,0.4099 0.3251,0.8645 0.847,1.6486 1.5502,2.1744 0.2435,0.1826 0.9553,0.3648 1.1027,0.6081 0.2033,0.3319 -0.318,0.0824 -0.4561,0.0416 -0.3271,-0.0995 -0.8288,-0.4308 -1.0684,-0.6542 -0.2948,-0.2778 -0.6355,0.2055 -0.3719,0.5017 0.4057,0.4555 0.8085,0.9502 1.2839,1.319 -0.0154,0.0785 -0.008,0.1669 0.0348,0.2534 0.0777,0.1604 0.1596,0.3209 0.2412,0.4796 -0.0158,-0.002 -0.0306,-0.003 -0.045,-0.005 -0.3025,-0.0326 -0.5134,0.3048 -0.3419,0.6021 0.1469,0.2577 0.2937,0.5139 0.4487,0.7693 0.093,0.15 0.1874,0.3008 0.2818,0.4505 3e-4,0.1088 -8e-4,0.2188 -8e-4,0.3274 -0.2863,-0.2084 -0.6531,0.1151 -0.4488,0.4614 0.0153,0.0256 0.0295,0.0528 0.0423,0.0769 0.4067,0.7001 0.7367,1.4411 1.0528,2.1911 -0.0173,9e-4 -0.0363,-0.003 -0.0542,-0.005 -0.2571,-0.0255 -0.4473,0.3272 -0.2211,0.5335 0.4331,0.3949 0.7296,0.8754 0.9468,1.4094 -0.0607,-0.0686 -0.1281,-0.1247 -0.2027,-0.1698 -0.1083,-0.0621 -0.2305,0.0978 -0.1522,0.2044 0.0876,0.1224 0.21,0.2149 0.3101,0.3237 0.009,0.009 0.0184,0.0193 0.0258,0.0275 -0.169,-0.0916 -0.3912,0.1352 -0.2506,0.3203 0.0629,0.0828 0.1378,0.1477 0.2126,0.2118 -0.0111,0.009 -0.0232,0.0181 -0.0349,0.0317 -0.1187,0.131 0.0771,0.3138 0.1636,0.3784 0.0703,0.055 0.138,0.1146 0.2041,0.1772 0.008,0.0459 0.0125,0.0935 0.019,0.1381 -0.0542,-0.005 -0.1066,0.0116 -0.1483,0.0666 -0.0598,0.0839 -0.0569,0.2287 0.0238,0.2948 0.0582,0.0484 0.1234,0.0774 0.1883,0.1068 0.0473,0.3413 0.0969,0.6755 0.153,1.0117 0.0244,0.1423 0.2347,0.18 0.2481,0.0145 0.0275,-0.3935 0.049,-0.7886 0.0663,-1.1818 0.0524,-0.0601 0.1193,-0.093 0.1842,-0.1335 0.1494,-0.0955 0.0173,-0.345 -0.1326,-0.2999 0.008,-0.0238 0.017,-0.0442 0.0232,-0.0663 0.0522,-0.1803 0.0357,-0.3722 0.1497,-0.5216 0.1525,-0.2018 0.009,-0.4915 -0.1803,-0.5445 0.0958,-0.0658 0.1871,-0.135 0.2687,-0.2254 0.125,-0.138 0.006,-0.381 -0.1465,-0.4037 0.0618,-0.1519 0.1352,-0.301 0.2279,-0.4481 0.2537,-0.4085 0.5536,-0.7296 0.8354,-1.1061 0.1451,-0.1939 -0.0139,-0.4773 -0.2203,-0.4515 0.0346,-0.0446 0.0675,-0.091 0.1004,-0.137 0.0354,-0.0496 0.07,-0.0986 0.1023,-0.1493 0.0802,-0.1248 0.006,-0.313 -0.1395,-0.2997 0.0267,-0.1185 0.0553,-0.2384 0.0839,-0.3586 0.0661,-0.0776 0.0573,-0.1947 0.007,-0.2763 0.2409,-0.1953 0.4595,-0.4113 0.6741,-0.6548 0.1423,-0.1636 -0.0468,-0.4411 -0.2276,-0.3586 -0.1151,0.051 -0.2262,0.0961 -0.3376,0.1369 0.2613,-0.5842 0.6054,-1.0939 1.0581,-1.5364 0.1029,-0.1043 0.0624,-0.3532 -0.1088,-0.3214 -0.2415,0.0476 -0.4859,0.0878 -0.7305,0.1312 0.3172,-0.4994 0.6644,-1.0017 1.0701,-1.3935 0.1505,-0.1482 0.0294,-0.4836 -0.1792,-0.375 -0.244,0.127 -0.4918,0.2316 -0.7469,0.32 -0.0663,-0.0564 -0.148,-0.0689 -0.237,-0.0468 0.0459,-0.0552 0.0899,-0.1122 0.1366,-0.1703 0.1355,-0.1259 0.0873,-0.3776 -0.0442,-0.4445 0.2787,-0.5802 0.5817,-1.1415 0.9136,-1.6926 0.1551,-0.2573 -0.0898,-0.5743 -0.335,-0.4033 -0.1401,0.1085 -0.2926,0.1998 -0.4456,0.2817 -0.007,3e-4 -0.0134,-0.005 -0.021,-0.007 -0.0471,-0.017 -0.0947,-0.0221 -0.1412,-0.0258 0.0615,-0.0913 0.1182,-0.1845 0.1568,-0.2687 0.2877,-0.614 0.667,-1.1818 1.0085,-1.7589 0.1435,-0.2466 -0.0867,-0.5627 -0.3231,-0.3881 -0.343,0.2503 -0.6769,0.4799 -1.05,0.6356 0.0511,-0.0601 0.0953,-0.1112 0.1078,-0.1307 0.2454,-0.3736 0.3146,-0.6687 0.6777,-0.9516 0.3748,-0.2951 0.6744,-0.4419 0.9003,-0.9043 0.0961,-0.1992 -0.1137,-0.4325 -0.2939,-0.3546 -0.1854,0.0802 -0.3688,0.1661 -0.552,0.2489 -0.0569,-0.0428 -0.1269,-0.0629 -0.2057,-0.0397 -0.4638,0.1352 -0.2937,-0.1661 -0.3164,-0.4374 0.2625,-0.2077 0.4774,-0.4348 0.6928,-0.729 0.066,-0.0913 0.0547,-0.2243 0,-0.3189 0.3759,-0.3308 0.735,-0.6874 1.0794,-1.0523 0.2135,-0.2287 -0.1131,-0.5309 -0.3274,-0.3945 -0.4958,0.3126 -0.9629,0.5025 -1.4794,0.6208 0.0431,-0.0497 0.0856,-0.099 0.127,-0.1489 0.0598,-0.0688 0.0635,-0.1471 0.036,-0.214 0.5553,-0.5726 1.0928,-1.1608 1.6844,-1.69 l 5.3274,5.0885 9.2543,-1.6413 c 0,0 4.8208,5.8054 5.0048,6.4313 0.184,0.625 4.9643,5.4844 4.9643,5.4844 l 5.4499,-1.9601 9.3974,9.5689 1.2986,4.6868 17.6374,21.7142 8.0144,-4.9104 16.8565,-28.2614 5.383,4.1258 4.1389,-6.9636 11.7734,1.9661 5.5588,-10.8921 9.098,-1.6365 7.8305,-5.5349 3.1841,-3.289 7.0535,-1.3955 c 0,0 0.9935,-2.727 1.4677,-2.7465 0.3025,-0.0125 4.0573,-1.137 6.5107,-1.9778 l 0.013,0.309 c -0.0394,0.6605 -0.0558,1.3247 -0.0533,1.988 -0.8983,0.3809 -1.8159,0.7129 -2.7476,1.0244 -2.0427,0.6789 -4.1358,1.2368 -6.1569,1.9307 -0.1559,0.0541 -0.2389,0.2761 -0.176,0.4402 0.3447,0.9215 0.8714,1.6194 1.6038,2.1345 -0.278,0.318 -0.5578,0.6392 -0.8345,0.9606 -0.1131,0.1307 -0.0655,0.336 0.0391,0.4505 0.165,0.18 0.3328,0.3075 0.5114,0.396 -0.1097,0.0802 -0.1947,0.1919 -0.2064,0.4056 -0.0158,0.3535 0.2209,0.6251 0.497,0.7467 0.3053,0.1383 0.6927,0.0215 1.002,0.026 0.4085,0.003 0.8362,0.0553 1.2342,0.1593 0.637,0.1693 1.0877,0.4987 1.652,0.8374 0.1412,0.0856 0.5619,0.1987 0.6846,0.305 1.5001,1.3045 -1.3737,0.4099 -1.8091,0.4929 -0.5028,0.0956 -0.4342,0.4595 -0.7528,0.7402 -0.1361,0.1199 -0.029,0.1505 0.0104,0.1593 -0.0257,-6e-4 -0.0824,3e-4 -0.1938,0.008 -0.1934,0.0119 -0.4933,-0.303 -0.6812,-0.375 -0.3251,-0.1213 -0.565,-0.1434 -0.8498,0.0754 -0.0944,0.0706 -0.1386,0.2259 -0.0922,0.3413 0.0216,0.0887 0.0451,0.1763 0.0686,0.2619 -0.2253,-0.021 -0.4447,-0.0862 -0.6568,-0.1987 -0.2505,-0.1086 -0.4694,0.1338 -0.3985,0.4161 0.1417,0.5545 0.4116,0.9647 0.8056,1.2544 -0.2007,0.1502 -0.4048,0.2829 -0.6505,0.4115 -0.2838,0.1494 -0.216,0.7291 0.1366,0.6506 0.8728,-0.1922 1.7847,-0.4901 2.6765,-0.521 0.7134,-0.0247 1.2994,0.4873 1.938,0.8447 -0.0493,0.1443 -0.0995,0.2894 -0.1474,0.4349 -0.1029,0.1434 -0.0899,0.3106 -0.0142,0.464 0.2713,0.5465 0.4981,1.0993 0.6974,1.6789 -0.3365,0.2067 -0.6696,0.3433 -1.0613,0.4459 -0.2234,0.0556 -0.2455,0.4261 -0.0805,0.5712 0.2415,0.2129 0.4509,0.3379 0.75,0.4184 0.2353,0.0627 0.4907,0.0332 0.7209,0.1035 0.1553,0.0445 0.4127,0.1411 0.621,0.2744 -0.506,0.0918 -0.9842,0.2605 -1.4536,0.5445 -0.4209,0.2534 -1.2019,0.743 -1.3734,1.3005 -0.2429,0.783 0.6256,0.9114 1.2762,0.8904 -0.0692,0.11 -0.1293,0.2316 -0.1885,0.3773 -0.0658,0.1675 0.0808,0.3078 0.2222,0.2676 0.1344,-0.0394 0.2829,-0.0683 0.4422,-0.0893 0.5939,-0.0765 1.3079,0 1.7431,0.3688 0.267,0.225 0.4274,0.6052 0.6531,0.8773 0.0909,0.1074 0.6312,0.4258 0.6803,0.5295 0.1355,0.2682 -1.0333,-0.2344 -1.2226,-0.3628 -0.186,-0.1256 -0.3915,0.1335 -0.3223,0.3347 0.1383,0.4026 0.3223,0.6186 0.644,0.8456 0.133,0.0958 1.5642,0.9499 1.1727,1.0761 -0.0575,0.0192 -0.1224,0.0164 -0.1942,-9e-4 -0.3413,-0.0862 -0.8022,-0.5309 -0.9776,-0.703 -0.0902,-0.0876 -0.1905,-0.0615 -0.2546,0.0105 -0.004,-0.006 -0.007,-0.0102 -0.0119,-0.017 -0.0646,-0.0887 -0.1905,-0.0879 -0.2364,0.0241 -0.4079,0.9771 3.2258,3.6598 1.9704,4.3047 -0.2994,0.1542 -0.3311,0.6142 -0.0241,0.7945 0.3311,0.1908 0.3764,0.2367 0.8076,0.1318 -0.3626,0.0888 -0.453,0.5692 -0.1194,0.7901 0.0176,0.0124 0.034,0.0218 0.0488,0.0328 0.0856,0.2846 0.1638,0.565 0.2392,0.8473 -0.0864,0.1256 -0.1091,0.3059 0.0318,0.468 0.0626,0.076 0.1168,0.1534 0.1618,0.231 0.0335,0.1174 0.0703,0.233 0.1083,0.3504 -10e-4,0.1409 0.0391,0.2852 0.0785,0.4589 0.1267,0.548 0.3589,0.9873 0.561,1.5018 0.021,0.0499 0.055,0.072 0.0901,0.0749 -0.0127,0.513 -0.0206,1.023 0.0635,1.5219 0.004,0.0363 0.0531,0.0516 0.0669,0.0136 0.26,-0.6854 0.3311,-1.5097 0.2997,-2.3428 0.1238,-0.1642 0.2321,-0.3453 0.3274,-0.5332 0.2809,-0.563 0.4314,-1.2082 0.468,-1.8644 0.0348,-0.6052 0.0632,-1.1826 0.4969,-1.5914 0.2664,-0.2497 0.6055,-0.3492 0.8115,-0.6919 0.2211,-0.3654 0.3581,-1.0519 -0.0524,-1.3535 -0.1882,-0.1389 -0.3654,-0.01 -0.5726,-0.0173 -0.0972,0.0258 -0.1919,0.0544 -0.288,0.0842 -0.2801,-0.474 -0.2458,-0.8502 0.1015,-1.1336 0.2713,-0.4082 0.5964,-0.5703 1.0043,-0.7943 0.1672,-0.0924 0.2432,-0.4272 0.0153,-0.5119 -0.2378,-0.0859 -0.466,-0.1446 -0.6999,-0.1854 0.6968,-0.7036 1.3879,-1.4114 2.0634,-2.1385 0.1859,-0.1987 -0.1058,-0.5269 -0.3019,-0.3625 -0.4731,0.3957 -0.9261,0.6826 -1.4757,0.8178 0.0436,-0.0715 0.0841,-0.1454 0.123,-0.218 0.1763,-0.1131 0.1182,-0.4088 -0.042,-0.4995 -0.1216,-0.0686 -0.2432,-0.136 -0.3634,-0.2063 0.6469,-0.5902 1.3587,-0.887 2.2323,-0.9445 0.3033,-0.0199 0.2693,-0.4644 0.0182,-0.5514 -0.2365,-0.083 -0.4748,-0.1644 -0.7113,-0.2443 -0.612,0.0482 -0.7993,-0.1469 -0.5584,-0.5871 0.0919,-0.5133 0.6489,-0.7157 1.1143,-0.8013 0.0853,-0.0139 0.1656,-0.0275 0.2418,-0.0374 0.0491,-0.007 0.0995,-0.042 0.1176,-0.0959 0.1205,-0.3149 0.0576,-0.5805 -0.2451,-0.7577 -0.1336,-0.0771 -0.2708,-0.0309 -0.4145,-0.0714 -0.6389,-0.184 -0.6052,-0.32 -0.8813,-0.8433 -0.0864,-0.1627 -0.252,-0.3501 -0.3138,-0.5125 -0.1255,-0.337 -0.3753,-0.0139 0.0227,-0.2982 0.1704,-0.121 0.7671,-0.0136 0.993,-0.0836 0.3645,-0.1123 0.6066,-0.2843 0.8949,-0.5627 0.1814,-0.1724 0.1063,-0.6282 -0.1877,-0.5556 -0.1601,0.0558 -0.3194,0.0797 -0.4821,0.076 0.4734,-0.5664 0.4782,-1.4414 0.4518,-2.2992 -0.003,-0.1392 -0.1298,-0.2378 -0.2455,-0.229 0.0459,-0.4434 0.2206,-0.7665 0.5244,-0.9616 0.1015,-0.066 0.2169,-0.1159 0.3481,-0.1544 0.1701,-0.0908 0.3405,-0.1803 0.5106,-0.2702 0.3982,-0.2072 0.7922,-0.4232 1.1888,-0.6406 0.2523,-0.1381 0.2143,-0.5026 -0.0519,-0.5933 -0.0249,-0.007 -0.0513,-0.0167 -0.0776,-0.0241 0.1122,-0.1511 0.1972,-0.3427 0.2469,-0.578 0.0399,-0.1927 -0.0987,-0.3654 -0.2557,-0.4068 -0.3776,-0.1 -0.7923,-0.0805 -0.8178,-0.5615 -0.005,-0.072 0.1428,-0.4071 0.1411,-0.5142 3e-4,-0.1361 -0.0187,-0.2466 -0.0601,-0.3393 0.298,-0.222 0.7969,-0.2092 0.8229,-0.7637 0.0159,-0.29 -0.0901,-0.2959 -0.1777,-0.4906 -0.1341,-0.0862 -0.2092,-0.2305 -0.2262,-0.4357 -0.0728,-0.0723 -0.1244,-0.1423 -0.1593,-0.2078 0.5,-0.4779 1.0284,-0.8428 1.4162,-1.3482 0.1261,-0.1049 0.2321,-0.2367 0.3161,-0.3821 0.1689,-0.1156 0.1842,-0.4147 0.1879,-0.6131 -9e-4,-0.0218 -0.002,-0.042 -0.006,-0.0593 0.0162,-0.0643 0.0312,-0.1315 0.0425,-0.2032 0.0142,-0.0754 -0.0272,-0.1741 -0.0938,-0.203 -0.2727,-0.1165 -0.5428,-0.2486 -0.8155,-0.3651 -0.0783,-0.034 -0.1548,-0.066 -0.2327,-0.0961 -0.1472,-0.0561 -0.4936,-0.0898 -0.6024,-0.2043 -0.2738,-0.0406 -0.2446,-0.1001 0.0842,-0.1772 l 0.3325,-0.1539 c 0.3322,-0.1556 0.6636,-0.3124 0.9947,-0.4663 0.1661,-0.078 0.2854,-0.3521 0.1403,-0.529 -1.0548,-1.2832 -2.452,-2.0514 -4.017,-2.0758 -1.1534,-0.019 -2.109,0.6571 -3.2658,0.2106 -0.4663,-0.1797 -0.9317,-0.4396 -1.4125,-0.5553 0.006,-0.2287 0.009,-0.4547 -0.002,-0.6817 0.029,-0.5871 0.0485,-1.1738 0.055,-1.7612 0.2569,-0.1187 0.3575,-0.1973 0.2376,-0.2163 -0.0559,-0.009 -0.1361,-0.0275 -0.2353,-0.0535 0.004,-0.7861 -0.017,-1.5727 -0.0703,-2.361 0.2177,-0.1692 0.305,-0.4703 0.2704,-0.7484 0.1182,-0.0844 0.2381,-0.1646 0.3518,-0.2488 0.1392,-0.0434 0.2733,-0.053 0.4244,-0.074 0.3656,-0.0539 0.3084,-0.6384 -0.0545,-0.6319 -0.1003,0 -0.1987,0.0287 -0.2973,0.0701 -0.074,-0.0825 -0.1749,-0.1404 -0.2897,-0.146 -0.203,-0.009 -0.419,-0.0204 -0.6163,0.047 -0.0972,0.0343 -0.1964,0.0834 -0.2945,0.1352 -0.0102,-0.0343 -0.0184,-0.0717 -0.0278,-0.1122 -0.0677,-0.2446 -0.3331,-0.2843 -0.5023,-0.1732 -0.1397,0.0941 -0.2324,0.2341 -0.3339,0.373 -0.0218,0.0312 -0.0434,0.0596 -0.0629,0.0879 -0.0613,-0.2248 -0.2311,-0.4093 -0.502,-0.3821 -0.0148,0.002 -0.0261,0.005 -0.0392,0.009 -0.1771,-0.2257 -0.5422,0.0802 -0.3727,0.3645 -0.008,0.0261 -0.0122,0.0567 -0.0173,0.0859 -0.025,-0.0122 -0.0516,-0.03 -0.0771,-0.0502 -0.1389,-0.106 -0.2999,-0.1153 -0.428,0.0114 -0.1146,0.1162 -0.1438,0.3393 -0.0431,0.4768 0.0935,0.1295 0.2012,0.2426 0.3362,0.3177 0.0382,0.0218 0.081,0.0374 0.125,0.0471 0.008,0.1114 0.0306,0.2191 0.0711,0.3203 -0.0252,0.1298 -0.0224,0.2662 0.0264,0.4085 0.1732,0.5176 0.3464,1.0363 0.4969,1.5593 -1.8227,-0.6202 -4.0853,-1.4451 -4.0853,-1.4451 l 2.6229,-1.5301 -6.9534,-0.0324 -35.1859,-2.6691 c 0,0 4.5397,2.8182 4.0649,2.8378 -0.4722,0.0193 -38.378,-0.1689 -38.378,-0.1689 l -19.4604,3.8004 -23.8901,-0.7603 -27.8223,1.2589 c -0.1075,-0.1588 -0.2923,-0.2557 -0.468,-0.2415 -0.1996,0.0153 -0.3969,0.0348 -0.5976,0.0547 -0.165,0.0159 -0.2962,0.1137 -0.3773,0.2523 l -7.1677,0.3242 z m 12.2848,11.7341 0.0675,0.0646 c -0.074,0.032 -0.1491,0.0607 -0.2248,0.0862 z m -15.601,19.0493 c -0.009,-0.01 -0.0306,-0.0365 -0.0595,-0.0748 0.0158,0.0417 0.0136,0.0882 -6e-4,0.1262 -0.004,0.009 -0.007,0.0192 -0.009,0.0277 0.152,0.0275 0.2844,0.2217 0.146,0.3725 -0.4841,0.5281 -0.6052,1.1052 -0.8183,1.777 0.003,0.0275 -0.002,0.0525 -0.0159,0.0701 l -0.001,0.001 c -0.0105,0.1774 -0.0253,0.3503 -0.0397,0.5247 -0.0116,0.1729 -0.2455,0.1187 -0.2353,-0.0499 0.005,-0.0913 0.006,-0.178 0.007,-0.2682 -0.0244,-0.0192 -0.0414,-0.0501 -0.0434,-0.0895 -0.001,-0.0735 -0.003,-0.146 -0.005,-0.2169 -0.0187,-0.0643 -0.0362,-0.1304 -0.0561,-0.1945 -0.0193,-0.0541 -0.036,-0.1131 -0.0507,-0.1777 0,-0.001 -0.001,-0.006 -3e-4,-0.007 -0.0578,-0.1119 -0.1202,-0.2225 -0.1843,-0.3313 -0.0532,-0.0633 -0.1065,-0.1231 -0.1595,-0.1849 -0.0196,-0.0221 -0.0312,-0.051 -0.0321,-0.0754 -0.1029,-0.1043 -0.1975,-0.2194 -0.2775,-0.3404 -0.0295,-0.0465 0.017,-0.1137 0.0646,-0.085 0.0893,0.0527 0.171,0.1142 0.2549,0.1834 -0.003,-0.003 -0.003,-0.004 -0.003,-0.005 -0.006,-0.0394 0.0162,-0.0661 0.0443,-0.0802 -0.1191,-0.1185 -0.2438,-0.2336 -0.37,-0.3396 -0.1964,-0.1662 -0.5212,-0.5219 -0.2245,-0.7745 0.01,-0.009 0.021,-0.0184 0.0312,-0.0243 0.0153,-0.1239 0.1009,-0.2175 0.2033,-0.2679 -0.1163,-0.1225 -0.2163,-0.2577 -0.2767,-0.4246 -0.021,-0.0525 -0.0247,-0.1061 -0.0153,-0.1588 -0.2293,-0.2236 -0.4683,-0.4368 -0.7163,-0.6352 -0.051,-0.0397 -0.1009,-0.0797 -0.15,-0.1182 -0.1332,-0.1061 0.0281,-0.311 0.1579,-0.2121 0.0357,0.0272 0.0717,0.0547 0.1077,0.0854 0.0301,-0.04 0.0803,-0.0582 0.1338,-0.0244 0.0148,0.011 0.0312,0.0176 0.046,0.0269 0.0187,-0.0745 0.0816,-0.1335 0.1573,-0.0842 -0.0221,-0.1137 0.108,-0.2217 0.2015,-0.1315 0.0105,0.008 0.0196,0.0164 0.0303,0.0261 0.004,-0.003 0.009,-0.003 0.0114,-0.002 -0.0278,-0.0437 -0.0544,-0.089 -0.0822,-0.1341 -0.0204,-0.0337 -0.0275,-0.0683 -0.0201,-0.0992 -0.0797,-0.0703 -0.1647,-0.1352 -0.2481,-0.1953 -0.1046,-0.0771 -0.1794,-0.097 -0.2095,-0.2305 -0.002,-0.0102 -8e-4,-0.0232 0.002,-0.0303 -0.0377,-0.0346 -0.0785,-0.0695 -0.1173,-0.1069 -0.0199,-0.0209 -0.004,-0.0533 0.0224,-0.0518 0.0366,0.006 0.0743,0.0133 0.1125,0.0235 -0.1392,-0.1468 -0.2704,-0.3036 -0.3886,-0.4723 -0.0156,-0.0241 0.0119,-0.0601 0.0343,-0.045 0.0178,0.0136 0.036,0.026 0.0536,0.0368 -0.3187,-0.2517 -0.6364,-0.504 -0.9562,-0.756 -0.0303,-0.0263 -0.0445,-0.0544 -0.047,-0.0864 -0.2024,-0.1681 -0.4034,-0.3337 -0.6044,-0.5006 -0.1122,-0.0942 0.008,-0.2931 0.1313,-0.226 0.009,0.006 0.0181,0.0111 0.0269,0.0168 0.4697,0.263 0.9068,0.574 1.3142,0.932 -0.01,-0.0196 -0.0137,-0.0383 -0.0142,-0.0556 -0.1344,-0.1031 -0.3141,-0.2477 -0.3107,-0.3058 -0.002,0.0303 -0.0476,0.0411 -0.0618,0.0139 -0.0278,-0.0468 -0.0377,-0.0652 -0.0567,-0.1137 -0.0329,-0.0899 0.0604,-0.1831 0.1364,-0.1386 0.242,0.1511 0.4745,0.3382 0.6953,0.5437 -0.049,-0.0661 -0.0981,-0.1321 -0.1485,-0.1999 -0.2336,-0.1494 -0.4737,-0.2891 -0.6642,-0.4824 0.003,0 0.003,-0.003 0.004,-0.003 -0.0559,-0.0555 -0.0261,-0.1757 0.0646,-0.159 0.2055,0.0352 0.4133,0.1551 0.6089,0.3039 0.0161,9e-4 0.0309,0.0105 0.0445,0.0255 0.007,0.007 0.0139,0.0142 0.0209,0.0224 0.002,0 0.002,0.002 0.003,0.003 0.051,0.0414 0.1017,0.0814 0.1499,0.1228 -0.0108,-0.0241 -0.0193,-0.0496 -0.0306,-0.0743 -0.1766,-0.1735 -0.3529,-0.3461 -0.5343,-0.5264 -0.0227,0.004 -0.0451,-0.0102 -0.0576,-0.0385 -0.01,-0.023 -0.0195,-0.0443 -0.0275,-0.0669 -0.0368,-0.0885 0.0635,-0.1854 0.1375,-0.1392 0.0876,0.0561 0.1746,0.1205 0.2568,0.1882 -0.0487,-0.1298 -0.0992,-0.2611 -0.1494,-0.3909 -0.1726,-0.4405 -0.2639,-1.0346 -0.5774,-1.3697 -0.4847,-0.1726 -0.9397,-0.4652 -1.3461,-0.8671 -0.1401,-0.1043 -0.0403,-0.4198 0.1434,-0.3577 0.7444,0.2446 1.2963,0.678 1.9687,0.7869 -0.3399,-0.2699 -0.6461,-0.5965 -0.9341,-0.9451 -0.1539,-0.1851 -0.006,-0.5343 0.2288,-0.3977 0.1012,0.0669 0.2061,0.1233 0.3127,0.1769 -0.3059,-0.5738 -0.7073,-1.0718 -1.0642,-1.6129 -0.0941,-0.1429 -0.0371,-0.3782 0.1171,-0.4309 -0.0558,-0.0312 -0.1125,-0.0632 -0.1689,-0.0958 -0.2061,-0.1188 -0.4026,-0.25 -0.5982,-0.3926 -0.3296,-0.2427 -0.6298,-0.523 -0.9172,-0.8258 -0.216,-0.2245 0.003,-0.6023 0.2732,-0.4731 0.0193,0.007 0.0352,0.0159 0.053,0.0213 -0.2545,-0.3183 -0.4646,-0.6678 -0.5607,-1.0661 -0.0643,-0.2673 0.1953,-0.5037 0.4042,-0.3138 0.3779,0.3424 0.7731,0.6273 1.2192,0.8393 -0.0116,-0.004 1.4171,0.5562 1.4176,0.4258 0,-0.0113 -0.0414,-0.0575 -0.1046,-0.1185 -0.1871,-0.1879 -0.5621,-0.5289 -0.5882,-0.5658 -0.284,-0.3634 -0.5125,-0.784 -0.7594,-1.184 -0.083,-0.0834 -0.1661,-0.165 -0.2514,-0.2401 0.002,0.0292 -0.0269,0.0578 -0.0553,0.034 -0.0779,-0.0646 -0.1516,-0.1344 -0.2267,-0.199 -0.006,-10e-4 -0.008,-10e-4 -0.0131,-0.002 -0.051,-0.008 -0.0847,-0.0519 -0.1029,-0.1015 -0.009,-0.007 -0.0164,-0.0136 -0.0252,-0.0224 -0.03,-0.0258 -0.0558,-0.0522 -0.0845,-0.0819 -0.003,-0.002 -0.006,-0.004 -0.008,-0.008 -0.002,-10e-4 -0.005,-0.002 -0.006,-0.005 -0.0377,-0.0375 -0.0768,-0.0749 -0.1162,-0.1129 -0.042,-0.0314 -0.0862,-0.0572 -0.1423,-0.0853 -0.0533,-0.0252 -0.1026,-0.0972 -0.1023,-0.1607 -3e-4,-0.004 -3e-4,-0.006 -3e-4,-0.0105 0.001,0 0.001,0 0.001,0 -5e-4,-0.0142 -0.001,-0.0258 0.001,-0.0405 0,-0.001 0,-0.001 0.002,-0.004 0.011,-0.0788 0.0816,-0.1584 0.1567,-0.1582 0.1627,-0.001 0.3311,0.0845 0.4394,0.2223 0.551,0.0833 1.1044,0.1284 1.658,0.1669 -0.1951,-0.2298 -0.3921,-0.4532 -0.493,-0.7463 -0.0357,-0.1029 0.034,-0.1344 -0.0272,-0.2855 -0.1335,-0.3245 -0.4527,-0.5102 -0.7095,-0.7327 -1.012,-0.8841 -2.0214,-1.7669 -3.0336,-2.6507 -0.2027,-0.1783 0.0167,-0.4671 0.2245,-0.3875 0.6165,0.2344 1.2455,0.4306 1.8686,0.6494 -0.0618,-0.0947 -0.1035,-0.1927 -0.1092,-0.3024 -0.0127,-0.1693 0.0749,-0.2552 0.1375,-0.3884 0.0332,-0.0734 0.2424,-0.0198 0.2503,-0.0779 0.013,-0.099 -0.519,-0.4714 -0.5763,-0.5253 -0.0754,-0.0737 -0.0796,-0.1777 -0.0467,-0.2616 -0.3901,-0.2248 -0.7646,-0.4527 -1.1937,-0.6061 -0.1276,-0.0439 -0.127,-0.2364 0.0113,-0.261 l 0.2378,-0.0562 c -0.6947,-0.3396 -1.6959,-0.4589 -1.5434,-1.5485 0.015,-0.0978 0.1063,-0.1608 0.191,-0.1455 0.2279,0.046 0.1202,0.1443 0.305,0.2399 0.7589,0.3855 0.741,0.1576 0.6208,-0.5503 -0.0209,-0.1235 0.1055,-0.1808 0.1897,-0.1465 0.4504,0.1885 0.6349,0.3736 0.9051,0.002 0.0297,-0.042 -0.0732,-0.197 -0.0318,-0.2478 0.1525,-0.1973 0.1562,-0.2814 0.4235,-0.2299 0.0904,0.0179 0.1511,0.118 0.2364,0.1494 0.053,0.0598 0.095,0.1279 0.1313,0.2033 0.3441,0.1927 0.6451,0.189 0.9076,-0.01 0.5242,-0.1562 1.1353,-0.2826 1.5248,-0.7171 -0.0218,-1.7311 -0.0286,-3.4628 -0.0502,-5.1857 -0.0125,-0.9128 1.2597,-1.0333 1.2745,-0.1097 0.0286,1.7657 0.0286,3.5396 0.0433,5.3129 0.8592,0.1823 1.6909,0.3711 2.5719,0.4221 0.1233,0.005 0.2449,0.1712 0.1352,0.2943 -0.5598,0.6397 0.2441,0.2262 0.3716,0.1887 0.1843,-0.0581 0.3739,-0.0921 0.5636,-0.1258 0.1034,-0.0216 0.1652,0.0989 0.159,0.1964 -0.0147,0.2407 -0.0488,0.438 -0.1012,0.6426 0.3844,-0.1301 0.7393,-0.1955 1.1435,-0.0102 0.0723,0.0332 0.068,0.1387 0.0147,0.1832 -0.7259,0.6278 -0.676,1.5959 -1.2404,2.3088 -0.2716,0.3381 -0.5879,0.642 -0.879,0.9595 -0.1471,0.1585 -0.2999,0.3152 -0.4439,0.4788 -0.0247,0.0286 -0.0587,0.0544 -0.0939,0.0776 0.0227,-0.01 0.0513,-0.0221 0.0825,-0.0354 0.0641,-0.0272 0.1361,0.038 0.1219,0.1142 -0.1088,0.5636 0.745,0.1185 0.9978,-0.006 0.332,-0.1641 0.6262,-0.3007 0.9822,-0.3758 0.0805,-0.0165 0.1616,0.089 0.1418,0.1737 -0.1681,0.6701 -0.7073,0.934 -1.2014,1.2903 -0.3897,0.2781 -0.803,0.582 -1.1284,0.944 -0.0346,0.0377 -0.2461,0.2851 -0.3711,0.4943 -0.0703,0.1163 -0.1137,0.2223 -0.0799,0.2702 -0.003,-0.0405 0.4753,-0.0315 0.4575,-0.0318 0.0425,9e-4 0.0717,0.0434 0.0714,0.0825 0.5386,-0.2537 1.0511,-0.5791 1.6668,-0.5754 0.074,0.003 0.1156,0.072 0.0915,0.1497 -0.1652,0.5587 -0.8929,0.8926 -1.305,1.1673 -0.1744,0.1187 -0.1545,0.0774 -0.3476,0.2457 -0.064,0.0564 -0.1105,0.0944 -0.1457,0.1233 0.0287,-0.0138 0.0627,-0.0255 0.0876,-0.0195 0.2226,0.0493 0.4289,-0.0394 0.6818,0.0564 0.0796,0.0269 0.0972,0.1448 0.015,0.1859 -0.4731,0.2308 -0.9972,0.4088 -1.1171,1.048 -0.012,0.0714 0.0785,0.2242 0.0634,0.3192 -0.0113,0.0771 -0.1284,0.364 -0.104,0.4283 0.0131,0.0386 0.6163,0.1644 0.6455,0.165 0.5317,0.0159 1.1625,-0.2217 1.703,-0.2886 0.1324,-0.0156 0.1653,0.186 0.0692,0.2503 0.003,0.0278 -0.003,0.057 -0.0298,0.0845 -0.4583,0.4734 -0.8901,0.9672 -1.2665,1.5259 -0.1735,0.2574 -0.3396,0.5221 -0.5082,0.7823 -0.262,0.4034 -0.2773,0.7008 0.2715,0.5222 0.0916,-0.0301 0.1933,0.0499 0.1718,0.1621 -0.0947,0.5429 -2.1362,1.7705 -1.0573,1.9446 0.1185,0.0215 0.1094,0.1916 0.0184,0.2384 -0.0383,0.057 -0.078,0.1105 -0.1176,0.1644 0.1221,-0.0153 0.1766,0.1446 0.1145,0.2441 -0.0329,0.0824 -0.0661,0.1649 -0.097,0.2503 0.6228,-0.237 1.1296,-0.6602 1.6419,-1.1299 0.1091,-0.0973 0.2795,0.0652 0.2111,0.1998 -0.2942,0.5913 -0.5641,1.2538 -0.9283,1.7975 -0.2514,0.3736 -0.612,0.5842 -0.8892,0.9238 0,3e-4 -0.2724,0.3835 -0.2381,0.3041 -0.1455,0.3376 -0.0429,0.1565 0.0221,0.37 0.1675,0.5779 0.6556,0.5507 1.1177,0.4141 0.1644,-0.0485 0.278,0.176 0.1397,0.2988 -0.2976,0.2656 -0.5715,0.549 -0.8096,0.8804 -0.0932,0.1267 -0.6644,1.1118 -0.4325,1.0806 0.0691,-0.01 0.1326,0.0569 0.1386,0.1304 0.0377,0.4201 -0.0808,0.6043 -0.2058,0.9819 -0.1236,0.3784 -0.2274,-0.0269 -0.0862,0.4161 3e-4,0.004 0.1395,0.1854 0.2254,0.2931 -0.003,-0.008 -0.007,-0.0167 -0.0125,-0.0235 0.0411,0.0561 0.0624,0.0842 0.072,0.0983 z m -17.3911,191.2797 c -30.867,1.1282 -30.6386,0.7086 -31.5527,-0.7138 l -0.9111,-1.4604 1.0729,-1.3076 c 2.3681,-2.8854 10.8955,-23.0485 12.4126,-26.6794 43.8004,-13.858 120.1009,-48.3106 160.7916,-67.8385 2.8993,-2.8358 6.6062,-6.7858 10.8876,-11.5299 -3.0353,-2.1708 -25.753,-18.523 -26.2593,-19.5409 -0.5377,-1.082 -1.0366,-6.9089 -0.01,-8.0674 1.0794,-1.2181 1.9811,0.0173 2.0489,0.6494 0,0 -0.3821,-2.7729 0.8186,-4.8206 0.6681,-1.1418 2.3922,-1.4372 3.0084,0.8427 1.0018,3.7095 1.3802,4.7807 9.3274,8.2605 1.8788,0.8203 14.4783,6.6396 22.1199,10.1421 34.7363,-40.0607 82.0406,-99.3564 85.4841,-101.3029 3.8795,-2.1929 31.0762,-4.9139 35.5604,-5.3552 l 3.4205,-0.3405 C 441.847,255.1073 411.719,348.3822 388.175,400.9161 336.956,414.3886 223.613,421.0968 171.3501,423.0108 Z m 1.7577,91.737 c -6.3785,12.2245 -15.5225,16.6139 -27.1252,10.5597 -4.2994,-2.2434 -8.1372,-5.4975 -9.9003,-7.8018 l 18.108,-34.7049 c 3.1597,0.1332 7.6597,1.3604 12.0628,3.6578 11.6028,6.054 13.233,16.0648 6.8547,28.2892 z M 161.2726,92.0151 151.2309,99.5675 133.31,84.4951 c -2.2045,-1.8394 -4.769,-4.407 -4.769,-4.407 l -0.0921,0.0692 c 0,0 1.9193,3.0529 3.2028,5.5851 l 10.5509,20.6149 -10.0421,7.5521 -16.0475,-39.6065 9.6736,-7.2749 z m 27.6217,200.5444 0.3325,-0.003 c 0.737,6.7615 7.3499,12.0541 15.4017,12.0541 h 0.0108 c 4.1545,9.6729 14.1378,16.4894 25.7944,16.4894 10.9659,0 20.45,-6.0322 24.9951,-14.8003 0.3197,0.0374 0.6452,0.057 0.9743,0.057 4.8727,0 8.8234,-4.2168 8.8234,-9.4184 0,-1.6954 -0.4204,-3.2859 -1.1546,-4.6599 l 0.2495,0.003 c 8.532,0 15.5262,-5.1069 16.1883,-11.5977 H 176.1486 c -0.1361,0.5848 -0.2067,1.1869 -0.2067,1.802 0,5.5641 5.7986,10.074 12.9524,10.074 z M 168.6271,57.8452 c 5.0213,7.7326 4.0108,16.359 -4.1193,21.3409 -8.1298,4.9819 -16.5793,2.1526 -21.6008,-5.5803 -5.021,-7.7329 -4.0411,-16.4072 4.0884,-21.3888 8.13,-4.9819 16.6104,-2.1044 21.6317,5.6282 z m -9.4966,5.9528 c -2.7896,-4.2962 -5.2121,-5.4808 -7.3307,-4.1823 -2.1186,1.298 -2.0613,3.932 0.7282,8.2281 2.7896,4.2959 5.2121,5.4808 7.3307,4.1826 2.1186,-1.2983 2.0611,-3.9325 -0.7282,-8.2284 z m 46.0372,-26.3382 c 2.4372,6.1651 -2.3193,9.7594 -5.1973,12.1071 -1.5103,1.2302 -2.6402,2.3185 -2.1402,3.5833 0.3957,1.0009 1.6243,1.2671 3.2006,0.6775 1.6849,-0.631 3.9943,-2.5237 4.8858,-3.583 l 5.7308,5.6582 c -2.0211,2.1472 -4.9283,4.2636 -9.1681,5.8501 -7.501,2.8072 -13.2783,0.9774 -15.5075,-4.6601 -2.3953,-6.0599 2.319,-9.7597 5.1432,-12.0867 1.4559,-1.2101 2.4976,-2.205 2.0392,-3.3638 -0.354,-0.8961 -1.4947,-1.2558 -2.9622,-0.7064 -1.8479,0.6913 -4.9853,3.0149 -6.0106,4.3667 l -6.3031,-6.4726 c 1.8122,-1.8876 5.2546,-4.3855 9.4947,-5.9726 8.8597,-3.3157 14.5034,-1.1934 16.7947,4.6023 z m 46.6775,-7.1954 c 0.8561,4.9558 -2.1067,8.9954 -4.9949,10.7322 l 0.0193,0.1114 c 3.5124,0.5083 6.7019,3.5895 7.3854,7.543 1.1452,6.6263 -2.888,12.3313 -14.6571,14.2736 -5.224,0.862 -10.3729,0.7957 -14.1058,0.0374 L 219.045,25.6558 c 2.8885,-1.7365 7.9395,-3.6008 13.3359,-4.4915 11.7694,-1.9423 18.1652,1.5837 19.4643,9.1001 z m -8.7097,18.9621 c -0.25,-1.448 -0.902,-2.4857 -1.7065,-3.0402 -0.6035,-0.4158 -2.0103,-0.699 -3.5603,-0.4431 l -4.0759,0.6724 1.4624,8.4634 c 0.7177,0.0536 1.828,-0.015 2.8613,-0.1856 4.4779,-0.739 5.5,-2.683 5.019,-5.4669 z m -2.5228,-16.3063 c -0.5678,-3.2848 -2.5019,-4.2259 -6.865,-3.5059 -1.0332,0.1706 -2.1526,0.5272 -2.7649,0.7429 l 1.482,8.5748 4.0759,-0.6726 c 1.7796,-0.2937 2.7935,-0.9193 3.4242,-1.711 0.631,-0.7912 0.8788,-2.0917 0.6478,-3.4282 z m 25.0801,-14.654 2.0358,30.3741 -11.2689,0.7381 -2.0358,-30.3741 z m 23.057,15.2614 c 0.1644,-4.4027 -1.4151,-7.3369 -4.5564,-7.4398 -0.8144,-0.0266 -1.6932,0.1137 -2.0486,0.2716 l -0.5355,14.3382 c 0.4011,0.1828 1.1548,0.2642 1.9111,0.2885 3.1998,0.1049 5.0352,-2.2648 5.2294,-7.4585 z m 58.6567,-4.4441 -4.3325,17.4146 c -2.0228,8.1303 -6.9165,10.4814 -15.8,8.4206 -5.0927,-1.1812 -9.6715,-3.4636 -12.2411,-5.1633 l 4.352,-6.4278 c 2.1016,1.4167 5.3907,3.1093 8.39,3.8052 2.7723,0.6432 4.263,-0.057 4.6593,-1.6503 l 0.1916,-0.7691 c -9.03,-2.6753 -16.4593,-6.4905 -14.5596,-14.1262 1.6263,-6.5375 7.4237,-8.9115 17.4955,-6.5752 5.1488,1.1945 9.7554,3.367 11.8448,5.0715 z m -11.6237,2.9403 c -0.4116,-0.2698 -1.4165,-0.5609 -2.3783,-0.7843 -2.6028,-0.6035 -4.716,-0.0479 -5.222,1.9845 -0.6423,2.5821 1.6971,3.7639 6.0696,4.9524 z m 38.0783,5.8315 -5.9859,6.5415 c -0.5941,-0.9176 -1.743,-1.6631 -3.117,-2.1251 -2.8579,-0.961 -5.5783,1.2943 -6.9213,5.0303 -1.3428,3.7361 -0.8756,7.064 2.2019,8.0989 1.374,0.462 2.7528,0.5672 3.8075,0.2038 l 0.595,8.4557 c -2.4936,0.597 -5.1063,0.4961 -9.1735,-0.8716 -7.5841,-2.5509 -11.9885,-9.8348 -8.4393,-19.7085 3.5496,-9.8736 11.6949,-12.9968 19.279,-10.4462 4.0672,1.368 6.1807,2.8565 7.7536,4.8212 z m 20.5739,27.1122 c -4.0487,7.5158 -11.3771,10.8879 -19.9383,6.5614 -8.6644,-4.3793 -10.5608,-12.7965 -6.1073,-21.0637 4.1567,-7.7165 12.3319,-11.8083 22.4405,-6.6994 4.3838,2.2158 8.3358,5.233 10.3697,7.7907 l -6.5415,5.8099 c -1.6265,-2.0968 -4.2667,-4.2599 -7.0521,-5.6673 -2.7847,-1.4077 -5.5397,-1.6523 -7.3663,-0.0896 l 15.6035,10.4996 c -0.4093,1.0043 -0.8951,1.906 -1.4082,2.8584 z m -10.6974,-2.9202 -7.4047,-4.8901 c -2.027,3.8843 -0.744,6.2535 1.5767,7.4265 2.2175,1.1208 4.3707,0.1692 5.828,-2.5364 z m 38.8227,13.8036 c -4.2253,6.2895 -10.7846,4.4461 -14.917,3.4455 -2.1671,-0.5258 -3.9472,-0.8073 -4.8141,0.483 -0.686,1.0213 -0.1238,2.2946 1.4803,3.3069 1.7147,1.0823 5.0386,1.8791 6.6339,1.967 l -1.5616,8.8891 c -3.3752,-0.3693 -7.3077,-1.55 -11.6215,-4.2729 -7.6331,-4.8175 -9.7299,-11.1932 -5.8657,-16.9447 4.1533,-6.1818 10.7847,-4.4461 14.8617,-3.4801 2.1119,0.4907 3.7455,0.7563 4.54,-0.4263 0.614,-0.9136 0.1982,-2.1711 -1.2951,-3.1136 -1.8805,-1.1868 -6.162,-2.4349 -8.1227,-2.4474 l 1.9542,-9.9428 c 2.9903,0.356 7.6394,1.7594 11.9537,4.4827 9.0159,5.6903 10.7464,12.1411 6.7739,18.0536 z M 162.7481,509.3425 c 3.9999,-7.6661 3.5495,-11.8554 -0.3354,-13.8824 -0.4663,-0.243 -1.0108,-0.4615 -1.3487,-0.5718 l -11.1081,21.2891 c 0.2565,0.2658 0.6959,0.5606 1.2135,0.8308 3.8849,2.027 7.5784,6e-4 11.5787,-7.6657 z m 46.6976,13.6802 c -2.8786,8.2775 -9.6437,12.7911 -18.8047,9.6058 -9.2707,-3.2238 -12.4336,-11.5608 -9.2676,-20.6663 2.9557,-8.4985 10.4525,-13.871 21.2686,-10.11 4.6908,1.631 9.0746,4.1451 11.4834,6.4675 l -5.6137,6.8936 c -1.9338,-1.9097 -4.8849,-3.74 -7.8653,-4.7764 -2.9798,-1.036 -5.7532,-0.8875 -7.3292,0.9771 l 17.0929,8.4801 c -0.2546,1.0866 -0.5998,2.0798 -0.9644,3.1286 z m -11.0678,-1.4363 -8.0981,-3.9294 c -1.4224,4.2684 0.2121,6.507 2.6952,7.3701 2.3732,0.8255 4.3665,-0.4606 5.4029,-3.4407 z m 55.5412,-7.353 -1.2575,9.2043 c -0.5394,-0.3688 -1.542,-0.8002 -2.4106,-0.919 -1.5049,-0.2055 -2.552,0.1231 -2.7975,1.9177 l -1.5503,11.3456 4.9785,0.6804 -1.1389,8.3361 -4.9788,-0.6803 -1.2733,9.3197 -10.5951,-4.4549 0.8703,-6.3675 -3.3577,-0.4592 1.139,-8.3358 3.3576,0.4586 1.6611,-12.1564 c 1.0202,-7.4673 4.0893,-10.94 11.0937,-9.983 2.5472,0.3481 5.131,1.2912 6.2595,2.0937 z m 31.8412,2.3867 -0.6477,18.5091 c -0.3024,8.6417 -4.6292,11.9982 -13.7962,11.6774 -5.2551,-0.184 -10.2336,-1.586 -13.1145,-2.7973 l 2.9475,-7.38 c 2.3612,1.0179 5.9488,2.0787 9.0434,2.1872 2.8612,0.1001 4.1825,-0.9059 4.2417,-2.5993 l 0.0286,-0.8173 c -9.4388,-0.915 -17.5396,-3.3032 -17.2559,-11.4193 0.2435,-6.9483 5.4542,-10.5078 15.8477,-10.1438 5.3133,0.1859 10.2963,1.4712 12.7054,2.7833 z m -10.8252,5.2917 c -0.4606,-0.1916 -1.5097,-0.2868 -2.5024,-0.3214 -2.6858,-0.0941 -4.6497,0.8895 -4.7254,3.0501 -0.0961,2.7439 2.4506,3.4764 6.9991,3.8109 z m 36.3509,6.3584 c -0.5312,-4.526 -2.5611,-7.2881 -5.6948,-6.9205 -0.8121,0.0953 -1.6622,0.3714 -1.9896,0.5865 l 1.7291,14.739 c 0.4267,0.1265 1.1878,0.0959 1.9421,0.007 3.1912,-0.3742 4.6394,-3.0739 4.0132,-8.4124 z m 56.3763,-28.4428 5.7833,17.5949 c 2.7003,8.2146 -0.2016,12.8583 -8.9156,15.7227 -4.9952,1.6421 -10.1517,2.0455 -13.2735,1.9034 l 0.218,-7.9441 c 2.5674,0.1404 6.3009,-0.1029 9.2421,-1.07 2.7196,-0.8941 3.6125,-2.2944 3.0832,-3.9036 l -0.2551,-0.7773 c -9.1743,2.4004 -17.6014,2.9566 -20.1376,-4.7585 -2.1708,-6.6047 1.4902,-11.7445 11.3701,-14.9919 5.0505,-1.6605 10.171,-2.1747 12.8851,-1.7756 z m -8.3324,8.7046 c -0.4986,-0.0207 -1.516,0.2523 -2.4593,0.5624 -2.5535,0.8394 -4.0564,2.4404 -3.3815,4.4941 0.8575,2.6087 3.5002,2.4162 7.8843,1.1599 z m 38.5395,-24.8573 9.6509,19.2127 c 3.1209,6.213 0.9621,11.5472 -8.3829,16.2417 -5.2211,2.6226 -9.4258,3.6235 -13.318,4.0751 l -13.4277,-26.731 10.1284,-5.0879 10.3068,20.518 c 0.627,-0.0533 1.6452,-0.3688 2.4284,-0.7623 1.8794,-0.9439 2.4512,-2.5392 1.5333,-4.3664 l -9.0479,-18.012 z m 38.638,-5.2092 c 5.0278,7.1782 4.7284,15.3057 -3.2157,20.8695 -8.0399,5.631 -16.6509,3.3168 -22.1811,-4.5793 -5.1618,-7.3698 -5.1309,-16.5935 4.2489,-23.1628 4.0674,-2.8488 8.6717,-4.9323 11.9648,-5.5267 l 2.3042,8.5864 c -2.6801,0.4505 -5.8918,1.7723 -8.4761,3.5822 -2.5841,1.8099 -4.0862,4.1462 -3.4968,6.5154 l 16.8794,-8.8977 c 0.7322,0.8422 1.3357,1.7034 1.9724,2.613 z m -7.6417,8.1343 -7.9254,4.2664 c 2.6289,3.6516 5.4003,3.6363 7.5538,2.128 2.0577,-1.4411 2.1816,-3.8103 0.3716,-6.3944 z M 317.5665,307.0284 c 0.9692,0.313 2.2892,1.0225 3.2218,1.4862 l -9.7988,-8.0637 c -0.1992,0.3665 -0.2709,0.8481 -0.4478,1.2155 -0.0383,-0.2713 -0.2243,-0.809 -0.2835,-1.1293 -0.1525,0.3438 -0.1945,0.5434 -0.2585,0.8498 -0.0941,-0.525 -0.1162,-0.9011 -0.0233,-1.4712 -0.2891,0.3076 -0.5456,0.6551 -0.6876,0.8924 0.0362,-0.3408 0.1411,-0.8181 0.3194,-1.3006 l -9.2633,-5.6239 c -0.0428,0.2869 -0.0493,0.487 -0.0493,0.487 -0.1939,-0.4229 -0.3649,-1.0806 -0.3986,-1.7515 -0.0354,-0.7192 -0.021,-0.2098 -0.301,-1.9622 -0.5284,1.1781 0.0788,3.5598 0.2486,3.7216 0.0754,0.072 4.6085,3.4702 9.5989,7.2102 l 0.4879,-0.0348 -0.0494,0.3628 c 6.0687,4.5451 12.6372,9.4592 12.6372,9.4592 l 0.0983,-0.7557 c -1.8938,-1.0015 -3.4772,-2.6941 -5.051,-3.5918 z m 0.4289,100.8411 c -40.7809,3.9433 -81.449,6.9174 -113.1676,8.9612 35.9266,-1.906 77.6959,-4.9419 113.1676,-8.9612 z m -164.6873,-5.3252 c -2.2116,5.0987 -5.2004,11.7973 -7.4582,16.1144 14.5545,-0.7013 125.2973,-6.2648 218.1447,-17.2632 7.4256,-1.3286 14.2478,-2.7511 20.2394,-4.2642 -13.2398,-10.7402 -34.6235,-30.9331 -53.0799,-50.9729 l -20.2751,6.4299 c 9.4294,12.7227 21.5184,34.374 30.3562,47.5046 -9.4946,-13.9677 -24.3229,-32.0193 -33.249,-46.5888 l -16.8791,5.353 c 10.3229,15.1225 15.5486,28.9817 23.1533,43.8055 0.476,0.9365 0.4663,0.943 -0.0402,0.0223 -7.9121,-14.6236 -16.9418,-26.844 -25.7528,-42.9927 l -18.2939,5.8005 c 6.8927,12.668 12.3256,29.4069 17.9971,41.555 -6.2815,-13.2624 -14.9261,-26.3959 -20.6614,-40.7089 l -19.0709,6.0446 c 5.1774,10.7482 7.9375,26.4943 12.0203,38.0243 -3.7006,-10.2294 -11.7111,-25.4359 -14.2345,-37.3216 l -20.808,6.5971 c 3.6006,8.9589 4.6647,19.3901 6.3046,27.0383 0.4064,1.9947 0.187,2.0372 -0.4618,0.1247 -2.4403,-7.4339 -6.6767,-16.7023 -8.1678,-26.4263 l -28.0686,8.8991 c 3.1961,6.2 3.0353,17.8472 4.5159,24.5546 -1.5974,-6.8675 -6.6223,-16.8443 -6.5118,-23.921 l -16.7295,5.3036 c 1.3677,7.5699 -0.5284,13.551 -0.3336,19.6821 0.008,0.4033 -0.004,0.4039 -0.0437,0.002 -0.4686,-5.2325 -2.838,-12.0991 -2.213,-18.8635 l -20.3987,6.4678 z m 189.8652,-50.0533 -6.0988,-12.8426 c -1.2557,1.8655 -2.2459,3.3321 -2.9191,4.3342 4.2137,3.8905 7.3783,6.9343 9.0179,8.5084 z m -187.4039,42.681 c 49.5511,-16.7879 113.8978,-42.5588 159.2422,-67.6811 -49.3608,24.7223 -107.4523,47.5466 -159.2422,67.6811 z m 168.8911,-77.4283 c -0.0581,-0.0893 -0.1449,-1.0018 0.0275,-1.6671 0.051,-0.2265 0.1117,-0.3277 0.1896,-0.4592 -0.4408,0.4218 -0.616,1.135 -0.6715,1.7473 -0.1381,2.188 5.8348,4.4883 7.9755,5.0419 -0.3299,0.2948 -0.2196,0.19 -0.7378,0.6506 3.9081,8.5779 10.4122,22.2494 14.8014,30.4784 -3.5626,-8.498 -10.0026,-22.1017 -14.0749,-30.3372 1.5817,-1.4908 3.2346,-3.079 4.659,-4.4618 -0.0632,-0.072 -0.1151,-0.1553 -0.1599,-0.2432 -0.002,-0.002 -0.005,-0.004 -0.007,-0.008 -1.2246,1.0582 -2.6927,2.34 -4.3804,3.8336 -2.9316,-1.7748 -7.251,-3.6618 -7.6215,-4.5754 z m 8.8288,-4.6489 c 2.26,0.6738 3.4832,1.4128 5.0799,2.0158 -0.6894,-0.6169 -2.9548,-2.0844 -5.0799,-2.0158 z m 7.5897,14.533 c -0.6797,-0.9681 -1.0307,-1.5718 -1.5432,-3.706 0.3788,2.8332 1.2334,5.053 3.8322,6.3793 -1.1755,1.7476 -2.2706,3.3727 -3.2723,4.8612 l 12.3851,26.0747 0.9709,0.512 -0.4765,-29.7607 c -1.3278,-0.8807 -2.6031,-1.7677 -3.8259,-2.6399 -2.7825,1.1506 -6.0137,0.9102 -8.0703,-1.7206 z m 11.8324,0.4274 -0.0445,-2.7198 c -0.2214,0.7464 -0.5683,1.4287 -1.031,2.0208 0.3552,0.2293 0.7141,0.4618 1.0755,0.699 z m -2.6022,-7.0608 c -0.0618,0.521 0.2285,1.1106 0.0428,1.2498 -0.184,0.1321 -0.2296,-0.6675 -1.0732,-0.7228 -0.6848,-0.0445 -5.4445,1.7475 -3.8818,4.1658 0.8241,1.0947 7.1575,-1.7841 7.2735,-4.2438 0,0 0.1142,-1.6251 -0.5188,-2.0341 -0.3676,-0.2387 -1.768,0.9677 -1.8425,1.5851 z m 1.5392,-3.2953 c 0.3645,0.8723 0.6596,1.9659 0.9476,3.2055 l -0.0723,-4.5051 c -0.2919,0.4365 -0.5847,0.8694 -0.8753,1.2996 z m -0.3679,-10.7192 c 0.0462,0.0624 0.087,0.1335 0.1165,0.2055 1.4037,-1.2818 2.6838,-2.457 2.8624,-2.6248 0.0862,15.0712 0.4887,37.9961 1.2328,51.8014 0.2032,-14.0706 -0.3107,-37.1038 -0.8382,-52.7442 -0.7305,0.7177 -2.071,2.0551 -3.3735,3.3621 z m 77.5318,-104.6505 c -1.7365,2.6971 -4.8127,7.3686 -8.828,13.4183 5.969,0.9817 13.3869,3.329 20.2301,4.6653 -7.7786,-1.3499 -15.7164,-1.7394 -21.3205,-3.024 -2.7346,4.1164 -5.8539,8.7981 -9.2484,13.8832 7.225,1.6968 15.683,5.6591 23.4315,8.4076 -7.9736,-2.6535 -17.5224,-4.5034 -24.3692,-7.0053 -3.0554,4.5729 -6.315,9.4456 -9.7038,14.5092 13.6534,4.7579 20.789,8.9217 33.6994,14.1494 -13.0241,-5.0621 -22.5255,-7.4347 -34.5178,-12.9308 -3.42,5.1108 -6.9667,10.3991 -10.5562,15.7501 11.4545,4.3685 25.026,13.1445 36.4283,17.8546 -10.9043,-4.4161 -26.7511,-8.6675 -37.7611,-15.8675 -3.2908,4.9076 -6.6124,9.8538 -9.9,14.7487 17.079,8.0659 27.1287,16.2799 41.7911,24.3819 -11.8482,-6.4641 -29.2322,-13.3512 -43.192,-22.2942 -4.4323,6.5973 -8.7877,13.0785 -12.922,19.2243 6.9692,4.202 12.1266,8.0977 19.5006,13.6162 33.6932,26.8188 34.8523,25.0225 -1.5647,2.2133 -7.6022,-5.0826 -12.992,-8.6556 -19.2824,-13.8229 -1.2441,1.8479 -2.463,3.6615 -3.6567,5.4343 l 0.3478,21.6808 c 15.395,10.9896 24.2796,19.3612 39.0637,30.9943 -11.423,-8.7361 -18.4391,-13.3223 -39.0033,-27.1803 l 0.5173,32.2872 c 13.0462,13.4186 21.8526,23.5009 26.6698,29.4741 4.0935,-9.3861 33.6535,-78.6133 68.3164,-197.6307 -9.036,0.9423 -18.2625,2.0903 -24.1699,3.0629 z M 186.7776,229.193 c 0.021,0.0207 0.0406,0.0388 0.0601,0.0541 -0.0255,-0.0266 -0.053,-0.0547 -0.0771,-0.0839 0.003,0.009 0.009,0.0154 0.0142,0.0256 0.001,0 0.003,0.003 0.003,0.004 z m 146.1722,-26.8248 c -1.8034,1.1798 -1.383,2.3635 -2.1036,3.9073 -0.2437,0.5249 -0.4356,0.7455 -0.7971,0.8934 -0.5547,0.6427 -1.2869,1.1331 -2.1486,1.3913 -1.0304,0.2999 -2.2785,0.39 -2.6243,-0.8096 -0.2588,-0.9 -0.2943,-1.6378 -0.6891,-2.5004 -0.1537,-0.3277 -0.3433,-0.6494 -0.3218,-1.0296 0.116,-1.9454 3.7012,-3.9503 5.0179,-4.9717 1.4698,-1.1327 2.7746,-2.7544 4.7211,-2.1444 0.9159,0.2855 3.1765,1.0321 3.1181,2.3687 -0.0768,1.6636 -3.1385,2.2201 -4.1726,2.895 z m -61.2932,32.7572 c -1.6824,0.4039 -3.6766,0.7948 -5.1721,-0.3649 -0.2991,-0.2338 -1.1506,-1.2427 -1.1254,-1.2671 -0.1275,0.131 -0.174,0.3864 -0.1607,0.7135 0.0658,1.6084 1.552,5.0383 1.6543,5.2351 0.5434,1.0712 1.4641,1.7665 0.3787,2.8853 -0.6803,0.6976 -1.5474,0.6461 -2.3803,0.4006 -0.1111,2.2175 -0.1853,4.4263 -0.087,6.6523 0.1049,2.2575 0.6231,4.5698 0.6582,6.8193 0.0261,2.0517 -1.2396,2.793 -2.9894,1.7269 -3.0719,-1.8782 -2.7371,-6.7014 -4.3988,-9.4263 -0.7517,-1.2467 -1.5718,-1.8258 -1.9131,-3.373 -0.3246,-1.4522 -0.1865,-2.9891 0.0771,-4.439 -0.1108,-0.0797 -0.2032,-0.1945 -0.2622,-0.3504 -0.5425,-1.4006 -1.1727,-2.7578 -1.7921,-4.1306 -0.0413,-0.0845 -0.0504,-0.18 -0.0544,-0.2685 -0.163,-0.2469 -0.3109,-0.487 -0.4294,-0.7472 -0.4383,-0.9743 -0.7317,-2.1061 -0.8978,-3.2244 -0.2293,-0.055 -0.4373,-0.2038 -0.5621,-0.464 -1.3286,-2.8083 -3.8069,-5.311 -6.0621,-7.4316 -2.2082,-2.0702 -4.8496,-2.9792 -7.6116,-3.9096 -0.0805,0.0287 -0.1608,0.0573 -0.2362,0.0919 -0.1737,0.0649 -0.4354,0.0178 -0.5621,-0.1299 -0.0975,-0.1082 -0.1715,-0.212 -0.2455,-0.3169 -0.0124,6e-4 -0.0192,-0.006 -0.032,-0.0113 -0.1604,-0.0505 -0.2044,-0.2152 -0.1533,-0.3376 -0.3527,-0.8754 0.1862,-1.6421 0.7302,-2.6881 0.8968,-1.7238 1.1888,-2.4389 0.4756,-4.2934 -0.508,-1.3133 -1.0706,-2.5211 -1.4604,-3.8826 -0.0675,-0.2372 0.008,-0.5706 0.2497,-0.6936 1.9375,-0.9961 2.3154,-1.1617 4.3339,-0.4932 4.1633,1.3646 7.2854,-0.1922 11.2173,-1.584 1.7878,-0.6361 2.8995,-1.2683 4.521,-0.091 1.6472,1.197 3.4072,2.781 4.7466,4.4832 2.6869,3.0878 3.9676,7.2003 5.9329,10.7484 1.0636,1.9287 1.3958,3.0782 1.5531,5.2195 0.2327,3.056 1.8269,5.2526 2.4644,8.1598 0.0689,0.3067 -0.0535,0.6984 -0.405,0.7824 z m -43.6782,-13.8822 c -0.3059,1.0616 -1.81,1.181 -2.183,0.0893 -0.8237,-2.41 -1.9894,-4.8829 -3.8069,-6.7229 -1.6484,-1.6665 -2.6147,-1.857 -4.7004,-1.5109 -0.6724,0.1126 -1.0542,0.3572 -1.7893,0.3113 -2.171,-0.1466 -3.8318,-2.2944 -4.8404,-4.2242 -0.038,-0.042 -0.0774,-0.0794 -0.1137,-0.123 -0.1655,-0.1942 -0.2401,-0.4057 -0.2446,-0.6064 -0.0527,-0.1136 -0.1035,-0.2264 -0.1497,-0.3342 -0.1641,-0.3841 0.3515,-0.8169 0.701,-0.5862 0.04,0.0255 0.0749,0.0522 0.112,0.0788 0.1721,-0.0371 0.3634,-0.0303 0.5715,0.0508 4.4093,1.7617 9.214,-3.7106 12.41,1.5828 1.1271,1.8627 2.1144,4.0289 3.0172,6.0103 0.7481,1.6464 1.5381,4.1845 1.0163,5.9845 z m 65.3011,8.4909 c -0.0598,0.3745 -0.5754,0.6225 -0.9003,0.4088 -0.9283,-0.6126 -1.3271,-1.0698 -1.5908,-2.1407 -0.3659,-0.603 -0.7092,-1.2297 -1.1415,-1.7725 -1.1335,-1.446 -1.6767,-1.582 -3.4129,-1.8777 -1.0582,-0.1766 -1.6325,-0.0346 -2.5585,-0.7234 -0.9837,-0.7228 -1.6098,-1.9616 -2.2709,-2.9599 -1.2588,-1.9007 -2.6651,-3.6633 -4.1332,-5.4108 -1.6069,-1.9125 -5.038,-4.502 -4.519,-7.2349 0.6656,-3.528 2.8208,-3.6995 6.0378,-4.9246 0.2739,-0.1055 0.667,0.0813 0.7288,0.3756 0.5593,2.5424 4.2707,2.3777 6.3839,2.4633 0.754,0.0249 1.7728,-0.0989 2.3587,0.4898 1.2444,1.2379 -0.5108,2.6691 -0.9878,3.8129 -1.6438,4.0051 3.384,7.3213 4.4393,10.7473 0.8396,2.7323 2.0228,5.8589 1.5664,8.7468 z m 21.5136,-21.3012 c -2.1453,3.329 -4.474,6.0092 -5.7371,9.8921 -0.6638,2.0239 -1.0913,3.9637 -2.6674,5.4176 -0.0788,0.1037 -0.1698,0.1834 -0.2613,0.2443 -0.0193,0.0145 -0.0304,0.0329 -0.0505,0.0454 -0.003,0.008 -0.0173,8e-4 -0.0297,0.008 -0.2852,0.1564 -0.6313,0.1896 -1.1132,0.1343 -0.2857,-0.0337 -0.3657,-0.2891 -0.305,-0.5062 -1.2175,-1.4607 0.11,-7.6451 0.3245,-8.7228 0.3215,-1.5917 1.4327,-3.4518 1.5016,-5.0278 0.0433,-1.1024 -0.7456,-2.2839 -0.8204,-3.2049 -0.0218,-0.2242 -0.2151,-0.489 -0.1953,-0.7288 0.0499,-0.5278 0.3943,-0.7636 0.7277,-1.0868 1.1735,-1.1341 4.0356,-2.6994 5.5953,-3.2068 1.673,-0.5417 2.1058,0.3509 3.1031,1.7195 1.447,1.9825 1.2897,2.9194 -0.0723,5.0224 z m -27.5437,361.1693 c 115.1237,-4.1159 217.686,-71.2151 260.3302,-197.6723 l -72.6157,-24.5183 c -1.5228,4.5108 -3.1816,8.8872 -4.9136,13.1879 L 419.4145,336.399 c -0.828,2.3077 -1.6597,4.6134 -2.4976,6.9166 l 50.974,22.5362 c -3.7344,8.6962 -7.8957,16.9444 -12.4328,24.753 l -44.6683,-30.7349 c -0.8538,2.2669 -1.715,4.534 -2.5835,6.7986 l 44.4319,28.707 c -4.9941,8.1298 -10.4185,15.7434 -16.2017,22.8654 l -35.3628,-33.537 c -0.9167,2.2405 -1.8442,4.4762 -2.783,6.7045 l 34.6768,31.036 c -6.2419,7.293 -12.8937,14.0083 -19.8684,20.1852 l -26.9033,-34.992 c -2.41,0.6018 -4.8404,1.1693 -7.2856,1.7073 l 30.0781,36.8533 c -7.3777,6.1962 -15.1078,11.7847 -23.1207,16.768 l -27.091,-49.8132 c -2.539,0.4144 -5.0789,0.8099 -7.6119,1.1897 l 29.9857,51.4517 c -8.3321,4.871 -16.9412,9.1167 -25.7669,12.7145 L 333.5567,416.791 c -2.5531,0.3308 -5.1086,0.6508 -7.6657,0.9609 l 24.3459,62.8019 c -9.0504,3.4095 -18.3084,6.1438 -27.6882,8.2293 l -12.75,-69.1977 c -2.501,0.267 -5.002,0.5267 -7.5039,0.7792 l 14.9341,69.5118 c -9.4765,1.8436 -19.0624,3.0277 -28.6855,3.537 l -1.9176,-71.5495 c -2.185,0.1984 -4.3699,0.3926 -6.5546,0.5825 l -0.65,0.0564 3.9181,71.1403 c -9.6319,0.2746 -19.2841,-0.1236 -28.8777,-1.1968 l 8.9578,-68.6135 c -2.52,0.2001 -5.0417,0.3946 -7.5646,0.5857 l -6.7827,67.3293 c -9.5153,-1.3232 -18.9575,-3.3007 -28.2529,-5.9468 l 17.818,-60.1475 c -2.5985,0.1752 -5.1982,0.3467 -7.797,0.5128 l -15.3272,58.0575 c -9.1015,-2.8491 -18.0473,-6.3346 -26.7554,-10.4845 l 22.1712,-46.3898 c -2.6172,0.1443 -5.2344,0.2832 -7.8517,0.4164 l -19.2379,43.5155 c -8.4163,-4.3016 -16.5996,-9.2095 -24.4797,-14.7407 l 19.0239,-27.6483 c -2.4596,0.0981 -4.9187,0.1922 -7.3766,0.282 l -0.4411,0.0162 -15.6279,24.1883 c -7.4994,-5.5678 -14.6912,-11.7337 -21.5382,-18.4581 l 5.4433,-5.7399 c -1.5848,-0.4617 -3.0214,-1.2872 -4.1306,-2.7813 -0.1497,-0.2021 -0.2838,-0.4065 -0.419,-0.6165 l -4.725,5.2789 c -6.4018,-6.6229 -12.466,-13.773 -18.1423,-21.4514 l 75.8177,-58.2937 c -1.7941,-2.1016 -3.5164,-4.2675 -5.1605,-6.4956 l -73.8831,60.3023 C 102.992,397.69 98.1411,389.7867 93.6882,381.4146 l 82.7353,-44.9952 c -1.468,-2.3927 -2.8528,-4.8432 -4.1527,-7.346 l -81.1945,47.3191 c -2.4446,-4.8481 -4.7588,-9.8467 -6.923,-15.0081 L 13.4717,391.0207 C 64.8624,513.6993 171.7058,573.7326 287.2494,569.6022 Z M 159.0877,275.8462 0.0023,284.6069 c -0.0068,1.1832 0.002,2.3704 0.0096,3.5567 l 159.4213,-4.271 c -0.1074,-1.4037 -0.1992,-2.812 -0.2574,-4.2296 -0.0521,-1.2767 -0.0762,-2.5475 -0.0881,-3.8168 z m 1.3034,-18.6401 -156.786,-15.7955 c -0.201,1.2339 -0.3728,2.4764 -0.5573,3.7157 l 156.3928,20.4174 c 0.2191,-2.8066 0.5372,-5.5866 0.9505,-8.3376 z m 225.7982,-26.769 0.5026,-0.6077 -0.654,0.2313 c 0.0513,0.1244 0.1001,0.252 0.1514,0.3764 z M 162.3047,247.3228 12.7157,203.01 c 0.3866,-1.2323 0.7826,-2.4597 1.1848,-3.6845 l 150.6935,39.7814 c -0.8589,2.6989 -1.6248,5.4391 -2.2893,8.2159 z m 0.0128,55.027 -158.6784,29.2351 c -0.1947,-1.201 -0.3835,-2.4043 -0.5632,-3.6107 l 157.5813,-33.8551 c 0.4567,2.7797 1.0134,5.5239 1.6603,8.2307 z m 5.7251,17.6638 -153.9153,54.4326 c -0.3832,-1.1565 -0.7458,-2.3227 -1.1137,-3.486 L 165.0634,312.016 c 0.8983,2.7122 1.8927,5.3796 2.9792,7.9976 z m 32.2529,44.3662 -6.825,7.1969 c -2.0871,0.8348 -4.1765,1.6625 -6.2691,2.484 -3.3607,1.3207 -6.7357,2.6297 -10.1225,3.9178 l 17.1544,-19.1668 c 1.9571,1.9247 3.9779,3.7826 6.0622,5.5681 z m 252.2069,-127.8354 97.4157,-17.9487 c 0.2954,1.1834 0.5695,2.3751 0.8499,3.564 l -100.5015,21.5929 c 0.7489,-2.4021 1.4944,-4.8047 2.2359,-7.2082 z m 10.0965,-33.5602 73.3521,-25.9416 c 0.4935,1.1574 0.9916,2.3137 1.4709,3.4798 l -77.0015,29.8494 c 0.7302,-2.4616 1.4559,-4.9243 2.1785,-7.3876 z M 427.487,313.3817 551.01,349.9741 c -0.2701,1.1577 -0.5434,2.3123 -0.8274,3.4643 L 425.0591,320.4071 c 0.8138,-2.3406 1.6231,-4.6826 2.4279,-7.0254 z m 7.9273,-23.491 122.1826,15.9525 c -0.0811,1.1835 -0.1638,2.367 -0.2594,3.5476 L 433.0862,296.8736 c 0.402,-1.1974 0.8017,-2.3959 1.2016,-3.5935 0.3765,-1.1293 0.7521,-2.2589 1.1265,-3.3894" /><path
         id="path20"
         style="fill:#ed1c24;fill-opacity:1;fill-rule:nonzero;stroke:none"
         d="m 356.6548,303.8641 70.7599,-101.2476 -3.6567,0.3498 -67.6006,90.4045 z" /><path
         id="path22"
         style="fill:#ed1c24;fill-opacity:1;fill-rule:nonzero;stroke:none"
         d="m 153.2735,401.2903 175.1735,-58.4297 1.2506,-0.4255 0.7696,-1.101 4.3019,-6.1548 -3.9716,-7.8931 -6.2093,8.3024 -170.7438,62.8821 z" /></g></g></svg>